Coordinates
version=1
nRows=11
nColumns=36
inDegrees=yes

Units are S.I. units (second, meters, Newtons, ...)
If the header above contains a line with 'inDegrees', this indicates whether rotational values are in degrees (yes) or radians (no).

endheader
time	pelvis_tilt	pelvis_list	pelvis_rotation	pelvis_tx	pelvis_ty	pelvis_tz	hip_flexion_r	hip_adduction_r	hip_rotation_r	knee_angle_r	knee_angle_r_beta	ankle_angle_r	subtalar_angle_r	mtp_angle_r	hip_flexion_l	hip_adduction_l	hip_rotation_l	knee_angle_l	knee_angle_l_beta	ankle_angle_l	subtalar_angle_l	mtp_angle_l	lumbar_extension	lumbar_bending	lumbar_rotation	arm_flex_r	arm_add_r	arm_rot_r	elbow_flex_r	pro_sup_r	arm_flex_l	arm_add_l	arm_rot_l	elbow_flex_l	pro_sup_l
     14.76666670	      7.98725170	      2.03195321	    179.50750492	      0.44722710	      0.94769334	      0.69002613	     25.03170012	      6.77550991	      5.02122386	     30.12189458	      0.52572624	     10.48850337	     -1.24382081	     -7.49999987	     31.30571479	     -2.12140347	      2.33091603	     73.01317722	      1.27432034	      3.56357331	    -15.37874174	     -7.49999987	     -5.68999341	      1.30338513	      0.30977453	      5.39916177	     -7.16964293	    -13.72894103	     21.32090183	     89.69816185	     13.29608306	    -11.26402854	      7.84527558	     20.82958002	     96.80195643
     14.78333330	      8.10883954	      1.82650554	    179.85755720	      0.44655105	      0.95155011	      0.69070266	     24.28971147	      6.35947008	      4.88072739	     30.63712052	      0.53471863	     11.49523116	     -3.61226184	     -7.49999987	     33.13622878	     -1.89854201	      1.78326133	     69.93236772	      1.22055007	      3.06890390	    -15.12346891	     -7.49999987	     -5.42256530	      0.87240176	      0.88017836	      5.91110474	     -7.75445771	    -12.38982440	     22.73150902	     89.51445420	     13.30336587	    -10.98764273	      7.07496395	     19.39827051	     96.44065783
     14.80000000	      8.17824242	      1.43925179	    179.89940630	      0.44550356	      0.95700957	      0.69156851	     23.41943189	      5.66695202	      4.47013171	     30.86117504	      0.53862912	     12.01060080	     -6.52005614	     -7.49999987	     34.32897659	     -1.76970282	      0.81178906	     65.98105185	      1.15158660	      2.07406328	    -15.19856578	     -7.49999987	     -5.24095796	      0.31681603	      1.40873827	      6.85818973	     -8.18300153	    -12.12932040	     23.58675823	     89.66405575	     12.83460315	    -10.81843189	      6.59332715	     18.31747432	     96.42078205
     14.81666670	      8.31285100	      1.01692078	    179.64042805	      0.44542990	      0.96335356	      0.69211332	     22.38883946	      4.86804229	      3.90878818	     30.51129514	      0.53252256	     11.67323785	     -9.99856504	     -7.49999987	     34.98047733	     -1.78207584	     -0.50740089	     61.12675603	      1.06686315	      0.54100710	    -15.67942610	     -7.49999987	     -5.04561313	     -0.20277572	      2.14218736	      7.85838282	     -8.73841777	    -11.44147544	     24.09278625	     89.36854918	     12.14117741	    -10.58109033	      5.96738561	     17.22318406	     95.23630733
     14.83333330	      8.24346004	      0.94453309	    179.07666228	      0.44594709	      0.96955736	      0.69302535	     20.85345961	      4.50404763	      3.50575847	     29.58056416	      0.51627824	     10.44477676	    -14.16831845	     -7.49999987	     34.86941151	     -2.35287580	     -2.30549809	     55.44257223	      0.96765543	      0.01500667	    -14.62006885	     -7.49999987	     -5.29152453	     -0.28296557	      3.37677660	      8.31312505	     -9.75656487	     -9.58059622	     25.67330144	     89.98432805	     11.74016118	     -9.96949587	      4.63300788	     15.85470438	     94.77916520
     14.85000000	      8.30415107	      0.86717992	    178.32283638	      0.44576253	      0.97266747	      0.69517922	     19.64334144	      4.02207434	      2.52617061	     29.12336769	      0.50829866	     10.05489588	    -16.44494165	     -7.49999987	     34.39930934	     -2.74388762	     -4.40159449	     49.00065087	      0.85522269	     -0.62633305	    -13.00337953	     -7.49999987	     -5.27335029	     -0.26934846	      4.44846487	      9.05425762	    -10.60842612	     -8.27536662	     26.27102176	     89.85286622	     10.92170109	     -9.45639220	      3.71812559	     14.92678921	     94.09777777
     14.86666670	      8.32300075	      0.98452195	    177.39890282	      0.44444456	      0.97128199	      0.69702971	     18.61541999	      3.82363440	      1.52354959	     29.15781024	      0.50889979	     10.69192060	    -17.36123843	     -7.49999987	     33.81068835	     -3.01575597	     -6.11160358	     42.58125101	      0.74318303	     -1.13537979	    -10.68926275	     -7.49999987	     -5.27138615	      0.13552086	      5.74431139	      9.60946605	    -11.63305584	     -7.52507751	     26.92444970	     90.25668453	     10.08233130	     -8.75539906	      2.91235551	     14.34298441	     94.48857636
     14.88333330	      8.41247543	      1.31680514	    176.36354196	      0.44265804	      0.96693572	      0.69630434	     17.65015358	      4.15316247	      1.02715938	     29.11880843	      0.50821908	     12.01410846	    -17.70649937	     -7.49999987	     33.61105287	     -3.45167941	     -7.17280777	     36.97990529	      0.64542110	     -1.69982856	     -8.48304380	     -7.49999987	     -4.90195678	      0.74080132	      7.05615927	      9.90373428	    -12.51435826	     -6.80675232	     27.38505527	     89.07303816	      9.14871921	     -8.09786441	      2.55425895	     13.79791405	     93.06312692
     14.90000000	      8.22545050	      1.90854896	    175.41800994	      0.44232516	      0.96342297	      0.69466582	     16.07063897	      4.95470383	      0.97501086	     28.20571924	      0.49228267	     13.55270075	    -17.28190339	     -7.49999987	     33.40095000	     -4.13748076	     -7.31841813	     32.36710237	      0.56491251	     -2.14375822	     -6.70022843	     -7.49999987	     -4.75932625	      1.55727828	      8.38769641	      9.91347640	    -13.49004585	     -6.09108426	     28.05909521	     89.73157649	      8.31076698	     -7.48124082	      2.12150663	     13.51806116	     93.77834704
     14.91666670	      7.67636102	      2.57599251	    174.67713197	      0.44452483	      0.96287012	      0.69432815	     13.85882286	      5.84738448	      1.22218721	     26.40407923	      0.46083812	     14.70134362	    -16.26730895	     -7.49999987	     32.93818916	     -4.90761862	     -6.75865835	     28.56827602	      0.49861048	     -2.81912895	     -5.87770110	     -7.49999987	     -5.08076967	      2.36673216	      9.44747113	     10.14564097	    -14.55305860	     -4.55480941	     28.78127633	     89.03386341	      7.92121283	     -6.83841727	      1.21926632	     12.73691520	     93.14286195
     14.93333330	      7.43141402	      3.16342154	    174.16922815	      0.44808585	      0.96313480	      0.69477545	     11.97362174	      6.63797291	      1.71144906	     24.36469006	      0.42524406	     15.03670328	    -15.58962996	     -7.49999987	     32.89798614	     -5.70062351	     -5.83817884	     25.34029772	      0.44227163	     -3.50672788	     -5.80301277	     -7.49999987	     -5.21053960	      3.02261248	     10.33379476	     10.45538827	    -15.48312903	     -3.59551814	     29.71627627	     88.21683713	      7.55441508	     -6.46685623	      0.93224920	     12.43381069	     93.15942895
